<?xml version="1.0" encoding="UTF-8" standalone="no"?>
<!-- Created with Inkscape (http://www.inkscape.org/) -->

<svg
   width="210mm"
   height="297mm"
   viewBox="0 0 210 297"
   version="1.1"
   id="svg1"
   xml:space="preserve"
   xmlns="http://www.w3.org/2000/svg"
   xmlns:svg="http://www.w3.org/2000/svg"><defs
     id="defs1" /><g
     id="layer1"
     style="display:inline"><g
       id="g20"
       style="display:inline"><ellipse
         style="display:inline;fill:#453f46;stroke-width:0.264583"
         id="path27"
         cx="108.60858"
         cy="86.93898"
         rx="76.793007"
         ry="74.119057" /><path
         style="display:inline;fill:#fb7fa7;stroke:none"
         d="m 117.71679,92.036234 v 0 c 1.48307,0.616638 3.60627,2.94637 5.6824,2.005567 1.59853,-1.683086 3.61416,-6.24786 2.50682,-8.857856"
         id="path25" /><path
         id="path39"
         style="display:inline;fill:#fee3d4;fill-opacity:1;stroke-width:0.264583"
         d="m 86.631921,44.907336 c -0.363047,1.139291 -1.194843,2.092268 -1.707906,3.175517 -1.154964,2.438513 -2.115711,5.016617 -2.564701,7.687903 -0.145513,0.865726 0.106304,4.019926 -0.507463,4.507218 -0.571838,0.454001 -1.752592,0.04724 -2.406054,0.01085 -2.546065,-0.141785 -4.763425,-1.015993 -7.186642,-1.677416 -0.115285,5.585442 -1.291324,11.239497 0.617534,16.712674 0.640525,1.836542 1.629989,3.271874 2.724898,4.846216 -0.0829,0.02145 -0.165593,0.04242 -0.248564,0.06201 0.143383,-9.75e-4 0.282928,0.01402 0.415996,0.05374 0.915468,0.273309 1.746578,1.403855 2.506823,1.977657 1.566431,1.182275 3.215623,2.150848 5.013648,2.943489 4.368582,1.925842 9.049435,2.122945 13.537158,3.486609 -0.666228,2.804895 -2.530528,2.667172 -4.846733,3.728455 -2.006226,0.919253 -3.937683,2.245309 -5.499922,3.807002 -4.11624,4.11481 -6.830872,10.579 -9.135877,15.86156 -0.817943,1.87454 -1.78915,3.6863 -2.703711,5.51543 -0.368284,0.73656 -0.695169,1.82601 -1.317749,2.38487 -0.701008,0.62926 -2.178267,0.73856 -3.068546,0.98288 -1.588013,0.43582 -3.234111,1.14385 -4.506185,2.2102 -0.663609,0.5563 -1.721733,1.64848 -1.537374,2.60863 0.624011,3.24989 6.4417,1.09123 8.216036,0.67076 -0.03321,0.7267 -0.481608,1.64985 -0.134876,2.33216 1.108176,2.18071 4.937955,-1.52206 5.739185,-2.49908 1.739643,-2.12133 2.881227,-4.76352 4.132048,-7.18664 1.432255,-2.77458 3.081387,-5.45084 4.585249,-8.18916 0.805162,-1.46608 1.609024,-2.93097 2.50424,-4.34496 0.204359,-0.32278 0.632113,-1.2794 1.147217,-1.08675 0.825139,0.30858 0.417694,2.42764 0.409794,3.09232 -0.02287,1.92239 -0.598364,3.57432 -1.326534,5.18521 0.158838,-0.2272 0.322652,-0.45145 0.491443,-0.67283 h 0.166915 c 4.474533,3.41171 11.293322,3.99925 16.545242,2.33474 1.56755,-0.49681 3.12933,-1.22805 4.51239,-2.11718 0.69317,-0.44562 1.37925,-1.20665 2.25722,-1.02319 -0.0993,-0.0816 -0.18386,-0.17013 -0.24649,-0.26717 -0.38225,-0.59224 0.0354,-1.62855 0.1142,-2.26963 0.18644,-1.51718 -0.1068,-3.09405 0.34055,-4.4974 -0.81623,1.18157 -2.17706,1.99006 -4.1367,1.99006 -0.99593,0 -1.93479,-0.23406 -2.84117,-0.65164 -1.3867,-0.63887 -2.44826,-1.79661 -3.50935,-2.85771 -0.62425,1.3122 -1.65629,2.43717 -2.84117,3.26905 -0.988461,0.69399 -2.133162,1.23752 -3.342427,1.38183 -1.03363,0.1234 -1.990995,0.17501 -3.008085,-0.0977 -3.766087,-1.00956 -5.023176,-5.32144 -2.739368,-8.396898 1.791003,-2.411834 4.709415,-3.333741 7.585584,-2.594157 1.753766,0.450964 2.898526,1.604781 4.345466,2.594157 0.55145,-1.063023 1.51954,-1.947092 2.50683,-2.613794 0.83455,-0.563561 1.68022,-0.938287 2.67374,-1.103808 4.89948,-0.816268 7.18382,4.38154 5.89369,7.93388 0.003,-0.004 0.007,-0.009 0.01,-0.0129 0.79283,-1.04693 2.34756,0.53528 3.12126,1.00924 2.0014,1.22602 4.41421,2.03604 6.51795,0.5302 2.18078,-1.56099 3.82229,-4.18204 5.24981,-6.411491 0.65673,-1.025669 1.43607,-2.812795 2.49235,-3.458703 0.37585,-0.229832 0.85108,-0.325808 1.36426,-0.363286 0.47802,-0.778557 1.33997,-1.054085 2.09083,-1.562178 1.67037,-1.130334 4.08779,-2.56568 4.92476,-4.475696 1.31042,-2.99044 -1.27248,-6.559063 -4.59042,-5.938656 -2.63336,0.492403 -4.28806,2.646812 -6.35103,4.100009 -0.40781,-1.379658 -0.55279,-2.330668 -1.13319,-3.707598 l -0.0362,-0.136095 c 3.26871,-3.339828 4.90369,-8.495535 5.53662,-13.035897 0.16589,-1.189823 0.78648,-3.371219 0.14056,-4.477246 -0.74166,-1.269968 -2.93166,-2.123857 -3.99098,-3.216858 -2.61755,-2.700744 -4.68345,-6.694029 -5.53041,-10.354924 h -0.16691 l 0.0475,5.347994 1.28933,5.849256 c -5.85048,-0.121416 -10.60865,-6.053329 -13.68031,-10.361642 -1.12888,-1.583375 -2.48978,-3.46636 -3.03185,-5.347994 h -0.16743 c 0.25669,3.225421 1.34717,6.743479 2.651,9.692949 0.64933,1.468875 1.89332,2.94416 2.19573,4.512386 -3.54228,0.279583 -6.85754,0.559017 -10.36164,-0.316777 -7.957551,-1.98886 -14.478731,-8.997462 -16.043984,-17.064075 z m -1.544608,17.205152 c 2.277425,-0.03837 4.723202,0.978012 6.169132,2.685107 0.929805,1.097744 2.218424,3.851354 -0.112138,4.255554 -1.854724,0.321679 -3.131137,-2.156426 -5.013647,-2.388484 -1.604938,-0.197847 -3.161732,0.683416 -4.345471,1.690336 -0.922751,0.784919 -1.833748,1.910291 -3.1719,1.233516 -1.417301,-0.716811 -1.077808,-2.525276 -0.386023,-3.623551 1.28335,-2.037434 3.53368,-3.398183 5.897832,-3.770313 0.315074,-0.04959 0.636868,-0.07668 0.962215,-0.08217 z m 33.261537,3.356384 c 2.62601,0.04202 5.07966,1.431897 6.51433,3.671611 0.75726,1.182193 2.06165,4.454122 -0.29456,4.821927 -2.42059,0.377853 -3.42793,-2.895248 -5.5149,-3.738789 -1.12716,-0.455589 -2.58674,-0.371697 -3.67678,0.141076 -1.01524,0.477592 -1.94053,1.48982 -3.16777,0.991154 -1.36469,-0.554513 -0.94501,-2.129754 -0.30489,-3.05046 1.24617,-1.792401 3.24632,-2.496428 5.3113,-2.77089 0.37973,-0.05047 0.75812,-0.07163 1.13327,-0.06563 z m -22.279262,9.036141 c 0.962029,0.03398 1.364472,1.269711 1.914612,1.97404 0.695049,0.88985 1.72774,1.609491 2.85306,1.798856 1.26834,0.213433 2.50805,-0.01055 3.50934,-0.836641 0.81207,-0.669981 1.33996,-1.776636 2.50683,-1.776636 1.23975,0 1.5254,1.131514 1.20302,2.166276 -0.38689,1.241789 -1.73412,2.371588 -2.87372,2.917135 -2.70287,1.293918 -6.424211,0.883603 -8.690429,-1.11001 -1.04819,-0.922104 -3.343052,-4.128117 -0.999939,-5.025016 0.174887,-0.06694 0.334845,-0.100798 0.482142,-0.107487 0.03222,-0.0015 0.06405,-0.0016 0.09508,-5.17e-4 z m 29.836422,10.678935 c 0.90011,2.042209 -0.61116,6.751915 -2.50682,8.857853 -0.5273,1.017768 -1.77918,2.827574 -3.00861,2.980697 -1.17271,0.14606 -2.18462,-0.922854 -3.00808,-1.60197 -1.69392,-1.397003 -3.37268,-2.763024 -5.34799,-3.750675 -1.38723,-0.693616 -5.16529,-1.020482 -5.348,-2.641699 4.65364,0 9.03424,-0.462237 13.53716,-1.696538 1.88891,-0.517772 3.77465,-1.940687 5.68234,-2.147671 z" /><path
         style="display:inline;fill:#fb7fa7;stroke:none"
         d="m 90.141493,113.09373 -0.327501,-0.092 c -7.503622,9.84119 -4.984626,25.69474 4.839822,32.88873 6.723416,4.92326 15.818526,6.05152 23.898586,5.27895 5.43535,-0.5197 10.87617,-2.2053 15.70956,-4.73231 2.05823,-1.0761 3.99551,-2.33455 6.01643,-3.46741 0.61585,-0.34524 1.29909,-1.11847 2.00548,-1.22016 0.84076,-0.12104 1.72558,1.01746 2.33972,1.46696 1.50568,1.10206 3.24985,2.01547 5.01369,2.6202 6.23963,2.13926 13.99903,0.30747 18.8849,-4.00631 1.30211,-1.14965 3.20185,-2.59354 3.6767,-4.33669 -3.95034,-1.6425 -7.78607,-2.84894 -12.03285,-3.41338 -1.14057,-0.15159 -3.79868,-0.46233 -3.9577,-1.10152 -0.31612,-1.27067 3.33622,-3.91769 4.40903,-5.17823 2.9398,-3.45423 4.16571,-7.99327 4.88319,-12.3671 0.23813,-1.4517 0.40493,-3.04384 0.47983,-4.51233 0.0223,-0.43688 -0.0132,-1.16755 -0.51709,-1.3317 -1.42506,-0.46419 -4.39388,0.90836 -5.79863,1.30823 -6.23786,1.77565 -12.73528,4.58463 -16.94365,9.71661 -1.35133,1.64791 -2.34782,3.48943 -2.99905,5.51506 -0.22248,0.69199 -0.42555,2.12388 -1.17017,2.63553 -0.56238,0.38643 -2.652,1.05248 -3.24884,1.09373 -2.21583,0.15313 -7.90741,0.47367 -10.48843,-0.8089 -3.01105,-1.49625 -5.38892,-4.79759 -6.68299,-8.61013 -0.86706,-2.55451 -1.4466,-5.14286 -4.67541,-8.15132 -0.48848,-0.45515 -1.54234,0.56352 -2.25713,1.02304 -1.38306,0.88913 -2.94477,1.62059 -4.51232,2.1174 -5.25192,1.66451 -13.802621,-0.23071 -16.545177,-2.33495 z"
         id="path110" /><path
         style="display:inline;fill:#fb7fa7;stroke:none"
         d="m 103.17709,99.891016 c -1.44694,-0.989376 -2.59144,-2.143054 -4.345202,-2.594018 -2.876169,-0.739584 -5.794783,0.182184 -7.585786,2.594018 -2.283808,3.075464 -1.026867,7.387204 2.73922,8.396764 1.01709,0.27265 1.974584,0.2215 3.008214,0.0981 1.209265,-0.14431 2.353971,-0.68813 3.342464,-1.38212 1.18488,-0.83188 2.21684,-1.95676 2.84109,-3.26896 1.06109,1.0611 2.12288,2.21873 3.50958,2.8576 0.90638,0.41758 1.84516,0.65172 2.84109,0.65172 7.64228,0 6.17548,-12.294611 -1.16986,-11.070856 -0.99352,0.165521 -1.83942,0.540273 -2.67397,1.103834 -0.98729,0.666702 -1.95539,1.550855 -2.50684,2.613878"
         id="path109" /><path
         style="display:inline;fill:#fbc5cd;stroke:none;stroke-width:0.9"
         d="m 144.7319,138.43105 c -0.73391,0.19552 -0.54682,0.83265 0,1.1239 0.89273,0.47548 2.01623,0.68877 2.99939,0.88924 4.20355,0.85708 8.39427,0.66373 12.6345,0.4576 1.03946,-0.0505 3.67226,0.11517 4.42145,-0.69228 0.70442,-0.7592 -0.22885,-1.43848 -0.96212,-1.39141 -3.75195,0.24084 -7.49812,0.90822 -11.28068,0.54826 -2.25313,-0.21442 -5.62523,-1.51803 -7.81254,-0.93531 z"
         id="path30" /><path
         style="fill:#fbc5cd;stroke:none;stroke-width:0.9"
         d="m 152.88969,134.21367 c -2.3661,0.37564 -4.68864,1.00086 -7.06919,1.3465 -0.33368,0.0484 -2.2584,0.27613 -1.55494,1.01317 0.49519,0.51884 1.68065,0.37241 2.307,0.30048 1.76412,-0.20259 3.53834,-0.52598 5.26437,-0.94517 0.56437,-0.13706 1.42662,-0.20057 1.88954,-0.57275 0.80716,-0.64896 -0.1634,-1.24914 -0.83678,-1.14223"
         id="path29" /><path
         style="fill:#fbc5cd;stroke:none;stroke-width:0.9"
         d="m 151.40255,128.44968 c -2.25054,0.40801 -4.99611,2.98249 -6.76616,4.34752 -0.37673,0.29052 -2.24159,1.89371 -0.74323,2.09031 0.7453,0.0978 1.55695,-0.8228 2.09693,-1.2295 1.78475,-1.34432 4.46535,-2.42002 5.96802,-4.02559 0.485,-0.51819 0.21338,-1.32214 -0.55556,-1.18274"
         id="path28" /><path
         style="fill:#fbc5cd;stroke:none;stroke-width:0.9"
         d="m 158.64578,115.51515 c -1.58601,0.52231 -3.16747,1.7514 -4.51232,2.71342 -3.37762,2.41616 -6.41792,5.17738 -8.99294,8.44413 -1.05953,1.34414 -2.18627,2.80461 -2.91596,4.36191 -0.27007,0.5764 -0.3324,1.67998 0.6266,1.58441 0.6837,-0.0681 1.03332,-0.9235 1.33431,-1.434 0.77625,-1.31657 1.67371,-2.57881 2.6417,-3.76026 2.34097,-2.85721 5.05497,-5.38955 8.05835,-7.54166 1.3136,-0.94128 3.9462,-1.865 4.84959,-3.16953 0.55286,-0.79836 -0.3237,-1.45055 -1.08933,-1.19842"
         id="path26" /><path
         style="display:inline;fill:#fb7fa7;stroke:none"
         d="m 58.722371,79.669131 c -0.124522,-2.900157 -0.996521,-7.530879 1.671229,-9.693135 0.929487,7.197296 8.221186,12.00223 15.208193,10.194504 -1.094909,-1.574342 -2.084379,-3.010025 -2.724904,-4.846567 -1.908858,-5.473177 -0.732841,-11.12686 -0.617556,-16.712302 2.423217,0.661423 4.640223,1.535382 7.186288,1.677167 0.653462,0.03639 1.834166,0.443421 2.406004,-0.01058 0.613767,-0.487292 0.362303,-3.641954 0.507816,-4.50768 0.44899,-2.671286 1.409651,-5.249146 2.564615,-7.687659 0.513063,-1.083249 1.344807,-2.036046 1.707854,-3.175337 h 0.167123 c 1.565253,8.066613 8.086268,15.075222 16.043807,17.064082 3.5041,0.875794 6.81935,0.596294 10.36163,0.316711 -0.30241,-1.568226 -1.54636,-3.043446 -2.19569,-4.512321 -1.30383,-2.94947 -2.39419,-6.467714 -2.65088,-9.693135 h 0.16712 c 0.54207,1.881634 1.90293,3.764562 3.03181,5.347937 3.07166,4.308313 7.83001,10.240211 13.68049,10.361627 l -1.28914,-5.849306 -0.0478,-5.347936 h 0.16712 c 0.84696,3.660895 2.9126,7.654303 5.53015,10.355047 1.05932,1.093001 3.24956,1.947018 3.99122,3.216986 0.64592,1.106027 0.0252,3.287429 -0.14069,4.477252 -0.63293,4.540362 -2.26814,9.695767 -5.53685,13.035595 v 0.167123 c 0.58942,1.54238 0.76205,2.297049 1.16986,3.676707 2.06297,-1.453197 3.71731,-3.607528 6.35067,-4.099931 3.31794,-0.620407 5.9009,2.947844 4.59048,5.938284 -0.83697,1.910016 -3.25435,3.34575 -4.92472,4.476084 -0.79584,0.538534 -1.7166,0.815551 -2.1726,1.707467 5.1721,0 10.14135,-2.172512 13.48254,-6.183551 1.23262,-1.479729 1.74078,-3.84514 3.22976,-5.013691 0.40575,3.013223 -0.0756,5.389835 -0.33425,8.356151 4.90498,-0.844597 6.53776,-8.916168 6.63728,-13.318855 0.19314,-8.544509 -1.04532,-16.235376 -3.10513,-24.430269 -2.28318,-8.643322 -6.91317,-15.54799 -13.55953,-21.551179 -10.02923,-9.058702 -25.21992,-13.464296 -38.60541,-12.547639 -19.802875,1.35613 -37.050456,13.505955 -44.454714,32.072665 -2.365516,5.931704 -4.251242,12.450613 -3.243811,18.8849 0.492598,3.146134 2.487478,6.894559 5.750656,7.854782 z"
         id="path7" /><path
         style="fill:#fee3d4;fill-opacity:1;stroke:none"
         d="m 138.92734,70.286808 c 1.89886,-0.904029 4.29666,1.935542 4.80995,3.408089 1.05968,3.039994 -0.47649,6.332335 -3.35896,7.635306 -0.7967,0.360134 -4.00178,1.20368 -4.37589,-0.161319 -0.1564,-0.570655 0.43607,-1.448923 0.65173,-1.958927 0.5857,-1.38513 1.01278,-2.871463 1.30938,-4.345198 0.16737,-0.831586 0.23583,-4.231373 0.96379,-4.577951 z"
         id="path23" /><path
         d="m 104.03684,128.83275 c 2.3154,2.00209 5.82631,2.57042 8.423,0.6599 0.93612,-0.68874 3.39019,-3.91239 1.75769,-5.06511 -0.51839,-0.36603 -0.91787,0.28738 -1.1673,0.64726 -0.849,1.22496 -1.9636,2.37418 -3.44819,2.78179 -1.35522,0.37209 -2.79041,0.25963 -4.06109,-0.34515 -0.6304,-0.30004 -1.53275,-1.2436 -2.24746,-1.16569 -0.71197,0.0777 -1.46007,2.23065 -1.97808,2.78724 -2.019379,2.16982 -4.780204,2.37583 -7.356079,1.16557 -0.476116,-0.2237 -1.594116,-0.71197 -1.690147,0.20507 -0.201765,1.92671 2.986714,3.00294 4.397539,3.20551 3.462657,0.49718 6.283127,-1.6841 7.370117,-4.87639"
         style="fill:#fbc5cd;stroke:none;stroke-width:0.9"
         id="path1" /><path
         d="m 111.57716,136.94501 c 2.93142,1.06677 5.19942,1.95933 8.12217,0.14055 1.18873,-0.73974 2.15177,-1.87619 2.36132,-3.29918 0.0626,-0.42449 0.16548,-1.21776 -0.30338,-1.46081 -0.48205,-0.24992 -0.94868,0.24897 -1.24205,0.56496 -0.90459,0.97437 -1.80335,1.89862 -3.07204,2.38963 -1.35374,0.52393 -2.82813,0.60846 -4.2115,0.14716 -0.67881,-0.22636 -1.81674,-1.18326 -2.53528,-0.84618 -0.70818,0.33221 -0.7656,1.73222 -1.14665,2.36387 -0.8104,1.34334 -2.18527,2.41033 -3.68819,2.8513 -2.37933,0.6981 -3.78119,-0.65408 -5.865444,-1.32712 -0.464688,-0.15005 -0.874674,0.078 -0.917775,0.58446 -0.177642,2.08737 3.231509,3.35547 4.827879,3.56344 3.63059,0.47296 7.13072,-2.01412 7.67094,-5.67208"
         style="fill:#fbc5cd;stroke:none;stroke-width:0.9"
         id="path1-4" /></g></g></svg>
